<mxfile host="app.diagrams.net" agent="Mozilla/5.0 (Macintosh; Intel Mac OS X 10_15_7) AppleWebKit/537.36 (KHTML, like Gecko) Chrome/141.0.0.0 Safari/537.36 Edg/141.0.0.0" version="28.2.7">
  <diagram name="第 1 页" id="sHIrvJQtrSsZzQWtLTj0">
    <mxGraphModel dx="2058" dy="1163" grid="1" gridSize="10" guides="1" tooltips="1" connect="1" arrows="1" fold="1" page="1" pageScale="1" pageWidth="827" pageHeight="1169" math="0" shadow="0">
      <root>
        <mxCell id="0" />
        <mxCell id="1" parent="0" />
        <mxCell id="eExAzTgGcfr9S0N1mQj2-2" value="&lt;font style=&quot;&quot;&gt;&lt;span style=&quot;color: light-dark(rgb(255, 255, 255), rgb(255, 255, 255)); font-size: 21px;&quot;&gt;pyimzML load data as&lt;font&gt;&amp;nbsp;&lt;/font&gt;&lt;/span&gt;&lt;span style=&quot;font-family: SFMono-Regular, Menlo, Monaco, Consolas, &amp;quot;Liberation Mono&amp;quot;, &amp;quot;Courier New&amp;quot;, Courier, monospace; text-align: start; background-color: transparent;&quot;&gt;&lt;font style=&quot;font-size: 18px; color: light-dark(rgb(255, 255, 255), rgb(255, 255, 255));&quot;&gt;Parser&lt;/font&gt;&lt;/span&gt;&lt;/font&gt;" style="rounded=1;whiteSpace=wrap;html=1;" vertex="1" parent="1">
          <mxGeometry x="230" y="180" width="350" height="90" as="geometry" />
        </mxCell>
      </root>
    </mxGraphModel>
  </diagram>
</mxfile>
